<svg width="24" height="24" viewBox="0 0 24 24" fill="none" xmlns="http://www.w3.org/2000/svg">
<path d="M18.4 21H5.6C4.72 21 4 20.2637 4 19.3638C4 18.4639 4.72 17.7276 5.6 17.7276H18.4C19.28 17.7276 20 18.4639 20 19.3638C20 20.2637 19.28 21 18.4 21ZM12.848 5.61175L15.848 8.67958L8.832 15.8542C8.688 16.0097 8.48 16.0915 8.272 16.0915H6.4C5.96 16.0915 5.6 15.7233 5.6 15.2734V13.359C5.6 13.1382 5.688 12.9336 5.832 12.7782L12.848 5.61175ZM16.704 7.80423L13.704 4.73639L15.168 3.23929C15.48 2.92024 15.984 2.92024 16.296 3.23929L18.168 5.15362C18.48 5.47267 18.48 5.98807 18.168 6.30712L16.704 7.80423Z" fill="black"/>
</svg>
