<svg width="24" height="24" viewBox="0 0 24 24" fill="none" xmlns="http://www.w3.org/2000/svg">
<path d="M22.6556 18.9895L13.5756 9.90948C14.5056 7.56948 14.0256 4.80948 12.1356 2.90948C9.83562 0.609483 6.25562 0.399483 3.70562 2.25948L7.54562 6.10948L6.12562 7.51948L2.29562 3.68948C0.435616 6.22948 0.645616 9.81948 2.94562 12.1095C4.80562 13.9695 7.51562 14.4595 9.83562 13.5895L18.9456 22.6995C19.3356 23.0895 19.9656 23.0895 20.3556 22.6995L22.6556 20.3995C23.0556 20.0195 23.0556 19.3895 22.6556 18.9895ZM19.6556 20.5895L10.1956 11.1295C9.58562 11.5795 8.90562 11.8495 8.19562 11.9495C6.83562 12.1495 5.40562 11.7395 4.36562 10.6995C3.41562 9.75948 2.97562 8.49948 3.04562 7.25948L6.13562 10.3495L10.3756 6.10948L7.28562 3.01948C8.52562 2.94948 9.77562 3.38948 10.7256 4.32948C11.8056 5.40948 12.2156 6.89948 11.9656 8.28948C11.8456 8.99948 11.5456 9.65948 11.0856 10.2495L20.5356 19.6995L19.6556 20.5895Z" fill="black"/>
</svg>
