<svg width="24" height="24" viewBox="0 0 24 24" fill="none" xmlns="http://www.w3.org/2000/svg">
<path d="M23 4.10721V15.3033C23 16.1129 22.3933 16.7725 21.6957 17.1364C21.2959 17.345 20.8597 17.3947 20.414 17.3947H6.76703C6.7168 17.4661 6.66181 17.5341 6.60243 17.5984C5.22892 18.9448 3.85406 20.2901 2.47785 21.6342C2.40112 21.7143 2.31762 21.7879 2.22824 21.8542C2.11686 21.9364 1.98395 21.9861 1.84489 21.9975C1.70584 22.0089 1.56633 21.9815 1.44255 21.9184C1.31806 21.8654 1.21128 21.7793 1.13432 21.6698C1.05736 21.5604 1.01332 21.432 1.0072 21.2993C1 21.1973 1 21.0965 1 20.9922C1 15.5117 1 10.0317 1 4.55207C1 4.4425 1.00405 4.33206 1.0063 4.22294C1.02249 3.27999 1.73713 2.32561 2.81561 2.088C2.97481 2.05324 3.13627 2.0286 3.29683 2H20.6663C22.0128 2 23 3.00587 23 4.10721ZM2.56915 19.3145L2.61412 19.3228C2.66764 19.2731 2.72206 19.2242 2.77423 19.1732C3.7848 18.1854 4.80076 17.2028 5.80099 16.2049C6.05779 15.9488 6.33798 15.8463 6.69777 15.8467C11.2528 15.852 15.8077 15.853 20.3627 15.8498C20.4747 15.8498 20.5876 15.8498 20.6991 15.8423C20.8684 15.8326 21.0292 15.7669 21.1553 15.656C21.2814 15.5451 21.3652 15.3956 21.3931 15.232C21.412 15.1167 21.4205 14.9999 21.4187 14.8831C21.4187 11.4293 21.4187 7.9758 21.4187 4.52259C21.4187 4.46406 21.4187 4.40554 21.4187 4.34658C21.4048 3.83045 20.9892 3.5286 20.5822 3.56336C20.5372 3.56732 20.4922 3.56336 20.4473 3.56336H3.53069C3.45604 3.56336 3.38093 3.56336 3.30582 3.56556C2.98201 3.58404 2.71621 3.76753 2.61907 4.07113C2.58418 4.19739 2.56902 4.32809 2.57409 4.45878C2.572 9.33147 2.572 14.2043 2.57409 19.0773L2.56915 19.3145Z" fill="black"/>
<path d="M12.0041 6.63024C13.7838 6.63024 15.5635 6.63024 17.3429 6.63024C17.4625 6.62766 17.5819 6.63799 17.6991 6.66104C17.8662 6.70344 18.0142 6.79894 18.1199 6.93253C18.2255 7.06612 18.2829 7.23025 18.2829 7.39916C18.2829 7.56807 18.2255 7.7322 18.1199 7.86579C18.0142 7.99938 17.8662 8.09487 17.6991 8.13728C17.5897 8.16079 17.4779 8.1723 17.3659 8.1716C13.7916 8.17336 10.2174 8.17336 6.64314 8.1716C6.50877 8.17362 6.37487 8.15567 6.24602 8.11836C5.90826 8.01364 5.70363 7.69199 5.72746 7.33382C5.74011 7.16888 5.80828 7.01269 5.92131 6.88968C6.03434 6.76668 6.18586 6.6838 6.35216 6.654C6.45515 6.63734 6.55945 6.62968 6.66383 6.63112C8.4445 6.62995 10.2246 6.62965 12.0041 6.63024Z" fill="black"/>
<path d="M9.64718 11.2402C10.6488 11.2402 11.6503 11.238 12.6524 11.2429C12.7937 11.24 12.9347 11.2595 13.0697 11.3005C13.4075 11.4145 13.6027 11.7405 13.5676 12.0974C13.5507 12.2589 13.4805 12.4107 13.3676 12.5298C13.2547 12.6488 13.1054 12.7287 12.942 12.7574C12.8393 12.7759 12.7351 12.7851 12.6308 12.7847C10.642 12.7847 8.6534 12.7847 6.66494 12.7847C6.55295 12.7854 6.44117 12.7752 6.33124 12.7543C6.15945 12.7159 6.00608 12.6216 5.89623 12.4868C5.78638 12.352 5.72656 12.1847 5.72656 12.0122C5.72656 11.8398 5.78638 11.6725 5.89623 11.5377C6.00608 11.4029 6.15945 11.3086 6.33124 11.2702C6.44129 11.2504 6.55307 11.2414 6.66494 11.2433C7.65887 11.2413 8.65295 11.2402 9.64718 11.2402Z" fill="black"/>
</svg>
