<svg width="24" height="24" viewBox="0 0 24 24" fill="none" xmlns="http://www.w3.org/2000/svg">
<path d="M21.2839 5.88971L11.2839 15.8897C10.8939 16.2797 10.2639 16.2797 9.87387 15.8897L7.04387 13.0597C6.65387 12.6697 6.65387 12.0397 7.04387 11.6497C7.43387 11.2597 8.06387 11.2597 8.45387 11.6497L10.5739 13.7697L19.8639 4.47971C20.2539 4.08971 20.8839 4.08971 21.2739 4.47971C21.6739 4.86971 21.6739 5.49971 21.2839 5.88971ZM15.7639 2.73971C14.0739 2.04971 12.1539 1.80971 10.1539 2.16971C6.08387 2.89971 2.83387 6.17971 2.14387 10.2497C1.00387 16.9997 6.62387 22.7797 13.3339 21.9097C17.2939 21.3997 20.6139 18.4497 21.6539 14.5997C22.0539 13.1297 22.0939 11.7097 21.8639 10.3797C21.7339 9.57971 20.7439 9.26971 20.1639 9.83971C19.9339 10.0697 19.8339 10.4097 19.8939 10.7297C20.1139 12.0597 20.0139 13.4797 19.3739 14.9897C18.2139 17.6997 15.6939 19.6897 12.7639 19.9597C7.66387 20.4297 3.43387 16.1097 4.06387 10.9797C4.49387 7.43971 7.34387 4.55971 10.8739 4.06971C12.6039 3.82971 14.2439 4.15971 15.6439 4.87971C16.0339 5.07971 16.5039 5.00971 16.8139 4.69971C17.2939 4.21971 17.1739 3.40971 16.5739 3.09971C16.3039 2.97971 16.0339 2.84971 15.7639 2.73971Z" fill="black"/>
</svg>
