<svg width="80" height="76" viewBox="0 0 80 76" fill="none" xmlns="http://www.w3.org/2000/svg">
<path d="M1.89097 67.5002C3.25452 68.3071 4.90679 68.3606 6.2341 68.4016C21.1557 68.879 36.2348 69.124 51.3464 68.9375C67.8816 68.7323 73.3908 69.2558 78.2489 65.6539C80.5285 63.9617 81.0722 60.5787 76.8666 60.5923L4.81805 61.311C3.15704 61.3284 1.14482 61.5534 0.303694 63.1623C-0.532437 64.7674 0.47617 66.6634 1.89097 67.5002ZM68.2578 67.4057L67.2567 66.4098L68.2128 65.4574L70.0163 67.2515C69.4426 67.3174 68.8552 67.3684 68.2578 67.4057ZM67.4142 67.4467C67.0005 67.4654 66.5868 67.4853 66.1643 67.4977L66.8142 66.8499L67.4142 67.4467ZM1.41354 63.7367C1.94721 62.7147 3.51949 62.5692 4.83055 62.5555L76.8803 61.8356C79.7837 61.7996 78.7526 63.7305 77.5027 64.6567C77.479 64.6741 77.4527 64.6866 77.429 64.704L76.8966 64.1743L77.3602 63.713L77.4402 63.7329C77.6115 63.769 77.7439 63.6509 77.7777 63.483C77.8127 63.3152 77.6727 63.1424 77.504 63.1076C77.3802 63.074 77.1615 63.0292 77.034 63.1573L76.4541 63.7342L75.1268 62.4138C75.0043 62.2919 74.8069 62.2919 74.6844 62.4138C74.5619 62.5356 74.5619 62.7321 74.6844 62.8527L76.0117 64.1731L75.9829 64.2017C75.8605 64.3235 75.8605 64.52 75.9829 64.6418C76.1054 64.7637 76.3029 64.7637 76.4254 64.6418L76.4541 64.6132L76.8891 65.0459C75.4293 65.9871 73.7995 66.5764 72.0235 66.932L73.3058 65.6564L73.6933 66.0418C73.8158 66.1636 74.0132 66.1636 74.1357 66.0418C74.2582 65.9199 74.2582 65.7235 74.1357 65.6016L73.7483 65.2162L74.5069 64.4615C74.6294 64.3397 74.6294 64.1432 74.5069 64.0214C74.3844 63.8995 74.187 63.8995 74.0645 64.0214L73.3058 64.7761L72.6484 64.1221L74.0557 62.7221C74.1782 62.6003 74.1782 62.4038 74.0557 62.282C73.9332 62.1601 73.7358 62.1601 73.6133 62.282L72.206 63.682L71.8273 63.3052C71.7048 63.1834 71.5073 63.1834 71.3848 63.3052C71.2624 63.4271 71.2624 63.6235 71.3848 63.7454L71.7635 64.1221L71.0861 64.796C70.9637 64.9178 70.9637 65.1143 71.0861 65.2361C71.2086 65.358 71.4061 65.358 71.5286 65.2361L72.206 64.5622L72.8634 65.2162L70.9524 67.1172C70.8587 67.1309 70.7649 67.1446 70.67 67.157C70.6712 67.0762 70.6412 66.9954 70.58 66.9345L68.6527 65.0173L69.5214 64.1532C69.6438 64.0313 69.6438 63.8349 69.5214 63.713C69.3989 63.5912 69.2014 63.5912 69.0789 63.713L68.2115 64.5772L68.0328 64.3994C67.9103 64.2775 67.7129 64.2775 67.5916 64.3994C67.4692 64.5212 67.4692 64.7177 67.5916 64.8395L67.7704 65.0173L66.8142 65.9697L65.337 64.5001C65.2145 64.3782 65.017 64.3782 64.8945 64.5001C64.772 64.6219 64.772 64.8184 64.8945 64.9402L66.3718 66.4098L65.4932 67.2839C65.4294 67.3473 65.4032 67.4293 65.4057 67.5114C64.1559 67.535 66.0069 67.5114 60.4851 67.5798L61.6187 66.4521L62.6223 67.4505C62.7448 67.5723 62.9423 67.5723 63.0648 67.4505C63.1873 67.3286 63.1873 67.1322 63.0648 67.0103L62.0612 66.0119L64.0071 64.0761C64.1296 63.9543 64.1296 63.7578 64.0071 63.636C63.8847 63.5141 63.6872 63.5141 63.5647 63.636L61.6187 65.5718L60.2414 64.2017C60.1189 64.0798 59.9215 64.0798 59.799 64.2017C59.6765 64.3235 59.6765 64.52 59.799 64.6418L61.1763 66.0119L59.899 67.2826C59.8152 67.3659 59.8102 67.4803 59.8427 67.586L54.2123 67.6556L56.1233 65.7546L57.7743 67.397C57.8968 67.5188 58.0942 67.5188 58.2155 67.397C58.338 67.2752 58.338 67.0787 58.2155 66.9569L56.5645 65.3144L57.5318 64.3521C57.6543 64.2303 57.6543 64.0338 57.5318 63.912C57.4093 63.7901 57.2119 63.7901 57.0894 63.912L56.122 64.8743L55.7433 64.4976C55.6208 64.3757 55.4234 64.3757 55.3009 64.4976C55.1784 64.6194 55.1784 64.8159 55.3009 64.9377L55.6796 65.3144L54.0236 66.9618L52.1463 65.0944C52.0238 64.9725 51.8264 64.9725 51.7039 65.0944C51.5814 65.2162 51.5814 65.4127 51.7039 65.5345L53.5811 67.402L53.3149 67.6668C49.7317 67.7116 51.199 67.6941 48.4531 67.7178L49.078 67.0961L49.148 67.1657C49.2705 67.2876 49.468 67.2876 49.5904 67.1657C49.7129 67.0439 49.7129 66.8474 49.5904 66.7256L49.5242 66.6585L51.5664 64.6269C51.6889 64.505 51.6889 64.3086 51.5664 64.1868C51.4439 64.0649 51.2465 64.0649 51.124 64.1868L49.0818 66.2183L47.6545 64.7985C47.532 64.6766 47.3345 64.6766 47.212 64.7985C47.0896 64.9203 47.0896 65.1168 47.212 65.2386L48.6393 66.6585L47.7107 67.5822C47.6707 67.622 47.6632 67.6767 47.6495 67.7277C46.1897 67.7389 44.7149 67.7464 43.2301 67.7501L43.985 66.9991L44.4799 67.4915C44.6024 67.6133 44.7999 67.6133 44.9211 67.4915C45.0436 67.3696 45.0436 67.1732 44.9211 67.0514L44.4262 66.559L46.1409 64.8532C46.2634 64.7313 46.2634 64.5349 46.1409 64.413C46.0184 64.2912 45.821 64.2912 45.6985 64.413L43.9837 66.1189L43.0564 65.1963C42.9339 65.0745 42.7364 65.0745 42.6139 65.1963C42.4915 65.3182 42.4915 65.5146 42.6139 65.6352L43.5413 66.5578L42.3415 67.7513C41.0179 67.7538 39.6794 67.7513 38.3345 67.7476L39.6381 66.4508L40.8529 67.6593C40.9754 67.7812 41.1729 67.7812 41.2954 67.6593C41.4179 67.5375 41.4179 67.341 41.2954 67.2192L40.0805 66.0107L40.8792 65.2162C41.0017 65.0944 41.0017 64.8979 40.8792 64.7761C40.7567 64.6542 40.5592 64.6542 40.4367 64.7761L39.6381 65.5706L39.1594 65.0944C39.0369 64.9725 38.8395 64.9725 38.717 65.0944C38.5945 65.2162 38.5945 65.4127 38.717 65.5345L39.1957 66.0107L37.4534 67.7439C27.7223 67.7053 17.4225 67.5139 6.2691 67.157C5.02302 67.1172 3.61072 67.0725 2.52338 66.4297C1.61851 65.8913 0.934855 64.6518 1.41354 63.7367Z" fill="#C6C6C6"/>
<path d="M14.4749 53.6157C16.6221 53.6406 63.3779 53.6406 65.5264 53.6157C67.4474 53.5896 69.6008 53.4391 70.8369 51.9733C72.068 50.5149 72.0605 51.4685 71.4955 16.6544C71.4443 12.8312 71.3593 10.546 65.8463 10.398C61.8082 10.3073 44.1944 10.2749 30.4614 10.301C30.3314 10.1481 30.1414 10.1469 29.9864 10.3023C27.0319 10.3085 17.157 10.3309 14.1637 10.3993C8.42575 10.5534 8.54573 12.9593 8.49199 17.511C8.42825 24.2001 8.3945 27.0336 8.17328 47.879C8.12579 51.8129 9.25938 53.5448 14.4749 53.6157ZM14.9798 12.0852L13.7962 13.2626L12.7526 12.2245C12.8301 12.1039 12.8339 11.9497 12.7276 11.844C12.6739 11.7905 12.6027 11.7694 12.5314 11.7632C13.0638 11.6849 13.6313 11.6563 14.1962 11.6413C14.2912 11.6389 14.4174 11.6376 14.5274 11.6351L14.9798 12.0852ZM15.3973 11.6214C15.4135 11.6214 15.4298 11.6214 15.4473 11.6202L15.4223 11.6451L15.3973 11.6214ZM12.3464 11.8191L12.3264 11.7992C12.3664 11.7918 12.4052 11.7843 12.4452 11.7781C12.4102 11.7868 12.3777 11.7992 12.3464 11.8191ZM11.8865 12.2419L10.6242 13.4976L10.2092 13.0848C10.473 12.6086 10.8017 12.2456 11.6165 11.9733L11.8865 12.2419ZM9.95928 13.7139L10.183 13.9365L10.1668 13.9514C10.0443 14.0733 10.0443 14.2697 10.1668 14.3916C10.2892 14.5134 10.4867 14.5134 10.6092 14.3916L10.6242 14.3766L11.7165 15.4633C11.6028 15.416 11.4741 15.416 11.3816 15.5081L10.2042 16.6793L9.75806 16.2366C9.76931 15.4148 9.75056 14.5047 9.95928 13.7139ZM10.8891 16.8769L11.824 15.9469C11.9165 15.8549 11.9165 15.7269 11.869 15.6137L12.1265 15.8699C12.249 15.9917 12.4464 15.9917 12.5689 15.8699C12.6914 15.748 12.6914 15.5516 12.5689 15.4297L11.0679 13.9365L12.3302 12.6807L13.3825 13.7276C13.3251 13.8433 13.3226 13.9813 13.42 14.077C13.5425 14.1988 13.74 14.1988 13.8612 14.077L15.4235 12.5228L16.0034 13.0997C16.1259 13.2216 16.3234 13.2216 16.4446 13.0997C16.5671 12.9779 16.5671 12.7815 16.4446 12.6596L15.8647 12.0827L16.0422 11.9062C16.1247 11.8241 16.1309 11.7147 16.1022 11.6103C16.6658 11.604 17.2895 11.5978 17.9981 11.5928C18.0131 11.6202 18.0094 11.6538 18.0331 11.6774L19.0442 12.6832L18.7143 13.0115C18.5918 13.1333 18.5918 13.3298 18.7143 13.4516C18.8368 13.5735 19.0342 13.5735 19.1567 13.4516L19.4867 13.1234L19.5054 13.142C19.6279 13.2639 19.8254 13.2639 19.9479 13.142C20.0703 13.0202 20.0703 12.8237 19.9479 12.7031L19.9291 12.6845L21.044 11.5742C21.2739 11.573 21.5114 11.5717 21.7489 11.5705C21.6426 11.6923 21.6401 11.8738 21.7564 11.9907L23.1812 13.4081C23.3136 13.5399 23.5574 13.5076 23.6661 13.3994L25.5196 11.5555C25.6058 11.5555 25.6858 11.5543 25.772 11.5543C25.782 11.6177 25.797 11.6811 25.8458 11.7296L27.1856 13.0612C27.3081 13.183 27.5055 13.183 27.628 13.0612C27.7505 12.9394 27.7505 12.7429 27.628 12.6223L26.5519 11.5518C27.2643 11.5493 27.9917 11.5481 28.7354 11.5456L27.8392 12.4371C27.7168 12.5589 27.7168 12.7553 27.8392 12.8772C27.9617 12.999 28.1592 12.999 28.2817 12.8772L29.6215 11.5444H29.8502C29.864 11.5717 29.8615 11.604 29.884 11.6264L31.0913 12.8275C31.2138 12.9493 31.4112 12.9493 31.5337 12.8275C31.6562 12.7056 31.6562 12.5092 31.5337 12.3873L30.6851 11.5431C31.5137 11.5419 32.3536 11.5406 33.206 11.5394L33.5184 11.8502L32.8735 12.4918C32.751 12.6136 32.751 12.8101 32.8735 12.9319C32.996 13.0537 33.1935 13.0537 33.316 12.9319L33.9596 12.2916L34.0096 12.3413C34.1321 12.4632 34.3296 12.4632 34.4521 12.3413C34.5745 12.2195 34.5745 12.023 34.4521 11.9024L34.4021 11.8527L34.7158 11.5394C35.4144 11.5394 36.1156 11.5381 36.8217 11.5381L36.438 11.9198C36.3155 12.0417 36.3155 12.2381 36.438 12.36C36.5605 12.4818 36.758 12.4818 36.8805 12.36L37.4466 11.7968L37.9716 12.3189C38.094 12.4408 38.2915 12.4408 38.414 12.3189C38.5365 12.1971 38.5365 12.0007 38.414 11.8788L38.0715 11.5369C42.6209 11.5357 61.2857 11.5406 65.8176 11.6426C70.1045 11.757 70.207 13.0488 70.2395 16.1061C66.5837 16.4443 67.3324 16.361 20.4253 16.7924C17.2407 16.8173 14.0662 16.8459 10.8891 16.8769ZM18.8255 11.5891C19.2492 11.5866 19.6916 11.5829 20.1541 11.5804L19.4854 12.2456L18.8255 11.5891ZM23.4174 12.7665L22.2138 11.5692C22.9837 11.5655 23.7948 11.563 24.6309 11.5593L23.4174 12.7665ZM69.8795 51.1751C68.9834 52.2381 67.1537 52.3512 65.5101 52.3724C63.3654 52.3972 16.6346 52.3972 14.4899 52.3724C9.96928 52.3115 9.38186 51.103 9.42186 47.8915C9.64183 27.097 9.67057 24.6763 9.73431 18.1314C13.3013 18.0954 16.8621 18.0631 20.4303 18.0332C66.8637 17.6068 66.3875 17.6901 70.247 17.3407C70.6057 50.3396 70.9281 49.9305 69.8795 51.1751Z" fill="#C6C6C6"/>
<path d="M11.8291 58.675C14.1775 58.7074 65.8276 58.7074 68.1673 58.675C70.2795 58.6489 72.6454 58.4761 73.9965 56.7367C75.4987 54.8046 75.1063 55.6948 74.6776 13.0901C74.6289 9.00951 73.4228 7.2726 68.5197 7.12962C61.5945 6.95679 18.4219 6.95679 11.4853 7.12962C6.65104 7.27011 5.36997 8.94113 5.32123 13.0913C5.24249 21.4278 5.19874 25.7035 4.93878 51.9238C4.89004 56.6932 6.21735 58.6066 11.8291 58.675ZM6.57105 13.1038C6.61229 9.61625 7.38968 8.4898 11.5191 8.37169C18.4256 8.19887 61.5807 8.19887 68.4847 8.37169C72.6579 8.49353 73.3866 9.65479 73.4278 13.1025C73.8577 55.7582 74.1427 54.5174 73.0091 55.9745V55.9758C71.9992 57.2775 69.9733 57.4093 68.1523 57.4317C65.7876 57.464 14.22 57.464 11.8465 57.4317C6.8935 57.372 6.14861 55.9447 6.1886 51.9362C6.44731 25.7682 6.49231 21.4414 6.57105 13.1038Z" fill="#C6C6C6"/>
<path d="M55.7146 16.0428C56.4495 15.7046 57.2819 14.6491 57.3019 13.6756C57.3294 12.2607 55.7234 11.7186 54.2373 12.2781C53.4887 12.5578 52.93 13.0464 52.7013 13.6159C52.0089 15.3379 53.8949 16.8783 55.7146 16.0428ZM53.8611 14.0759C53.9936 13.7439 54.6673 13.3038 55.3984 13.3038C57.0332 13.3038 55.1372 15.8116 54.0236 14.8082C53.8274 14.6304 53.7599 14.3295 53.8611 14.0759Z" fill="#C6C6C6"/>
<path d="M60.2018 16.2668C60.553 16.2668 60.9105 16.1934 61.2392 16.0418C61.9741 15.7036 62.8077 14.648 62.8265 13.6745C62.8539 12.2671 61.2579 11.7163 59.7619 12.2758C59.0132 12.5567 58.4533 13.0441 58.2246 13.6136V13.6148C57.7284 14.8594 58.6046 16.2668 60.2018 16.2668ZM59.3857 14.0761C59.6919 13.3114 61.5891 13.0093 61.5766 13.6509C61.5679 14.0935 61.0767 14.7475 60.7155 14.9128C59.9731 15.2547 59.107 14.7786 59.3857 14.0761Z" fill="#C6C6C6"/>
<path d="M66.8806 16.0431C67.6155 15.7049 68.4479 14.6493 68.4679 13.6758C68.4954 12.2696 66.9031 11.7163 65.4033 12.2783C64.6547 12.5581 64.0947 13.0467 63.8673 13.6161C63.5711 14.3534 63.766 15.2038 64.3535 15.7322C64.9984 16.3116 66.0445 16.4273 66.8806 16.0431ZM65.0271 14.0761C65.3296 13.3239 67.2306 13.0119 67.2181 13.6522C67.2006 14.561 65.9345 15.4811 65.1908 14.8097C64.9934 14.6307 64.9259 14.3298 65.0271 14.0761Z" fill="#C6C6C6"/>
<path d="M55.869 33.3835C55.8578 33.0565 55.5941 32.7941 55.2654 32.7842C53.4719 32.722 53.0844 32.7071 52.3583 32.686C52.1758 31.4116 51.8358 30.2317 51.3522 29.1848C51.3359 29.1487 51.3197 29.1114 51.3034 29.0766L53.2681 27.1569C53.5206 26.9095 53.5181 26.4992 53.2544 26.2568C52.0596 25.1589 50.691 23.9591 49.5562 22.9048C49.3149 22.6822 48.9263 22.7009 48.6863 22.921C48.1139 23.4506 47.5477 23.9728 46.984 24.5062C45.8342 23.8298 44.5694 23.3449 43.2746 23.0838L43.2971 20.3411C43.2996 19.947 42.9334 19.6709 42.6496 19.7157C40.9761 19.7741 39.3101 19.8798 37.6504 19.9382C37.3217 19.9494 37.0579 20.2118 37.0479 20.5388C37.0154 21.5123 36.9829 22.4858 36.9592 23.4519C35.8231 23.8323 34.7445 24.3657 33.7434 25.0408C32.9698 24.301 32.1961 23.5625 31.4225 22.8327C31.2038 22.6275 30.8713 22.6052 30.6276 22.7792C29.5003 23.5849 28.0667 24.72 26.9794 26.3612C26.8169 26.6062 26.8494 26.9307 27.0569 27.1395L29.4403 29.5466C28.8466 30.5238 28.3829 31.5396 28.0567 32.5778C26.9631 32.5977 25.877 32.6188 24.7809 32.6499C24.4822 32.6586 24.231 32.8762 24.1823 33.1684C23.8411 35.1937 23.8261 36.769 24.1335 38.2709C24.1923 38.5594 24.446 38.767 24.7409 38.7683L27.6618 38.7907C27.9117 40.0153 28.3567 41.1728 28.9891 42.2396C28.3342 42.9122 27.6893 43.5849 27.0544 44.2575C26.8506 44.4726 26.8281 44.8021 27.0006 45.0433C28.1842 46.7044 29.2903 47.8271 30.5889 48.6875C30.8351 48.8491 31.1613 48.8192 31.3725 48.6129L33.421 46.6086C34.4646 47.229 35.6119 47.7177 36.8405 48.0695C36.8605 49.0045 36.8817 49.9457 36.9117 50.8782C36.9205 51.1741 37.1392 51.4227 37.4329 51.4712C39.1801 51.7597 40.8374 51.8554 42.5634 51.5073C42.8521 51.4489 43.0608 51.1977 43.0633 50.903L43.0846 48.4748C44.5131 48.261 45.8054 47.8408 46.9403 47.2216L48.6113 48.9075C48.8625 49.1624 49.2737 49.15 49.5137 48.8951C50.631 47.7027 51.7908 46.391 52.8857 45.2248C53.1094 44.9861 53.1094 44.6156 52.8857 44.3769L51.2022 42.5877C51.7109 41.4986 52.0783 40.2826 52.2995 38.9622L55.4616 38.9859C55.8715 38.961 56.1027 38.6626 56.0902 38.3418C56.0327 36.6621 55.9265 35.011 55.869 33.3835ZM51.7696 37.7164C51.7684 37.7164 51.7659 37.7164 51.7646 37.7164C51.4521 37.7164 51.1872 37.9464 51.1447 38.256C50.936 39.8114 50.516 41.2126 49.8974 42.4199C49.7774 42.6524 49.8174 42.9346 49.9961 43.1249L51.5759 44.8046C50.7597 45.6861 49.8461 46.7056 49.0437 47.5734L47.4915 46.0069C47.2865 45.8005 46.9665 45.7632 46.7191 45.9136C45.503 46.6596 44.0494 47.1296 42.3972 47.3123C42.0835 47.3472 41.8448 47.6107 41.841 47.9253L41.8198 50.3784C40.7212 50.5412 39.5526 50.5251 38.1453 50.3249C38.119 49.4111 38.099 48.491 38.0803 47.5797C38.074 47.2999 37.8816 47.0587 37.6104 46.9903C36.1656 46.6235 34.842 46.0554 33.6747 45.3031C33.431 45.144 33.1048 45.1763 32.8973 45.3815L30.8688 47.3646C29.9789 46.7069 29.1691 45.8713 28.3204 44.7374C28.9466 44.0785 29.5828 43.4195 30.2252 42.7606C30.4289 42.5529 30.4601 42.2322 30.3014 41.9885C29.529 40.8061 29.0266 39.4919 28.8041 38.0807C28.7566 37.7798 28.4979 37.5573 28.1917 37.5548L25.2721 37.5324C25.1109 36.4507 25.1321 35.2907 25.3359 33.8808C26.4045 33.8534 27.4668 33.8336 28.5391 33.8149C28.8166 33.8099 29.0578 33.6234 29.1303 33.3574C29.4665 32.1339 30.0127 30.9379 30.7563 29.8015C30.9163 29.5565 30.8838 29.2333 30.6776 29.0256L28.3117 26.6372C28.9628 25.7582 29.8002 24.9513 30.9413 24.0947C31.7124 24.8245 32.4836 25.5618 33.2547 26.3003C33.4897 26.5241 33.8559 26.5328 34.0984 26.3214C34.1446 26.2816 34.1908 26.2493 34.3321 26.1486C35.3857 25.4213 36.5368 24.868 37.7516 24.5074C38.0116 24.4303 38.1915 24.1954 38.1978 23.9256C38.219 23.0092 38.2465 22.0855 38.2765 21.1604C39.5463 21.1082 40.8612 21.0336 42.0397 20.9851L42.0185 23.6011C42.016 23.9094 42.2422 24.173 42.5484 24.2202C44.0157 24.444 45.4592 24.9948 46.7241 25.8129C46.9678 25.9708 47.289 25.941 47.4977 25.7383C48.0364 25.2236 48.5751 24.7213 49.1287 24.209C50.1273 25.1241 50.9822 25.8763 51.9208 26.7305L50.0986 28.5122C49.8999 28.7061 49.8549 29.007 49.9874 29.2507C50.0636 29.3887 50.1386 29.5279 50.2098 29.6921C50.711 30.7775 51.0385 32.0121 51.1834 33.3623C51.2159 33.6732 51.4771 33.9119 51.7908 33.9181C52.682 33.9367 53.7243 33.9765 54.6417 34.0076C54.6929 35.2509 54.7679 36.544 54.8179 37.74L51.7696 37.7164Z" fill="#C6C6C6"/>
<path d="M42.639 31.0731C40.9868 30.0983 38.8396 30.3631 37.1648 31.7482C35.4588 33.1594 34.7889 35.2456 35.46 37.0634C36.1274 38.8736 38.0134 40.1331 39.9681 40.1331C40.1181 40.1331 40.2681 40.1257 40.4168 40.1107C42.4678 39.9044 44.2988 38.2806 44.7687 36.2502C45.2324 34.2522 44.3363 32.0764 42.639 31.0731ZM39.3582 32.0093L39.402 32.0528C39.367 32.0677 39.327 32.0665 39.2982 32.0951L38.5296 32.8597L38.2021 32.534C38.5309 32.2965 38.912 32.0938 39.3332 31.9484C39.3457 31.9683 39.342 31.9931 39.3582 32.0093ZM36.6324 36.6357C36.4299 36.0874 36.4174 35.5503 36.5136 35.0467L38.2034 36.7277L37.266 37.6602C36.9936 37.3556 36.7724 37.0124 36.6324 36.6357ZM43.5514 35.9705C43.1977 37.4985 41.8266 38.7195 40.2919 38.8736C39.382 38.9706 38.4459 38.6511 37.7247 38.0841L38.6471 37.1666L38.8346 37.3531C38.957 37.4749 39.1545 37.4749 39.277 37.3531C39.3995 37.2312 39.3995 37.0348 39.277 36.9129L39.0895 36.7264L39.6469 36.1719C39.7694 36.0501 39.7694 35.8536 39.6469 35.7318C39.5245 35.6099 39.327 35.6099 39.2058 35.7318L38.6483 36.2863L36.7161 34.3629C36.9523 33.8009 37.3223 33.3135 37.721 32.9306L38.0909 33.2986L37.3773 34.0073C37.2548 34.1291 37.2548 34.3256 37.3773 34.4474C37.4997 34.5693 37.6972 34.5693 37.8197 34.4474L38.5334 33.7375L39.4807 34.6799C39.6032 34.8018 39.8007 34.8018 39.9232 34.6799C40.0456 34.5581 40.0456 34.3616 39.9232 34.2398L38.9758 33.2974L39.7444 32.5315C39.7732 32.5029 39.7719 32.4631 39.7869 32.4283L40.3093 32.948L40.0056 33.2501C39.8832 33.372 39.8832 33.5684 40.0056 33.6903C40.1281 33.8121 40.3256 33.8121 40.4481 33.6903L40.7518 33.3881L40.818 33.4528C40.9405 33.5746 41.138 33.5746 41.2605 33.4528C41.3829 33.3309 41.3829 33.1345 41.2605 33.0126L41.1942 32.948L41.5717 32.5725C41.6942 32.4507 41.6942 32.2542 41.5717 32.1324C41.4492 32.0105 41.2517 32.0105 41.1292 32.1324L40.7518 32.5079L40.0206 31.7805C40.1794 31.7569 40.3368 31.7283 40.4981 31.7283C40.9992 31.7283 41.5129 31.8477 42.0054 32.1386C43.2227 32.8647 43.8888 34.5096 43.5514 35.9705Z" fill="#C6C6C6"/>
<path d="M19.8025 23.2394L20.4836 22.5618C20.6061 22.4399 20.6061 22.2435 20.4836 22.1217C20.3612 21.9998 20.1637 21.9998 20.0412 22.1217L19.3601 22.7993L18.7539 22.1963C18.6314 22.0744 18.4339 22.0744 18.3127 22.1963C18.1902 22.3181 18.1902 22.5145 18.3127 22.6364L18.9189 23.2394L17.5566 24.5946L16.4242 23.4682C16.3017 23.3463 16.1043 23.3463 15.9818 23.4682C15.8593 23.59 15.8593 23.7865 15.9818 23.9083L17.1141 25.0347L16.0143 26.1289L15.1457 25.2635C15.0232 25.1417 14.8257 25.1417 14.7045 25.2635C14.582 25.3854 14.582 25.5818 14.7045 25.7037L15.5731 26.569L13.2247 28.9052C13.1022 29.027 13.1022 29.2235 13.2247 29.3453C13.3472 29.4672 13.5446 29.4672 13.6671 29.3453L16.0155 27.0091L17.3878 28.3743C17.5103 28.4961 17.7078 28.4961 17.8303 28.3743C17.9528 28.2524 17.9528 28.056 17.8303 27.9354L16.458 26.5702L17.5578 25.4761L18.3252 26.2395C18.4477 26.3614 18.6452 26.3614 18.7664 26.2395C18.8889 26.1177 18.8889 25.9212 18.7664 25.7994L17.999 25.036L19.3613 23.6808L20.5474 24.8607C20.6699 24.9825 20.8673 24.9825 20.9886 24.8607C21.1111 24.7388 21.1111 24.5424 20.9886 24.4205L19.8025 23.2394Z" fill="#C6C6C6"/>
<path d="M66.0605 37.5275L65.5281 38.0571L65.0719 37.6033C64.9494 37.4815 64.7519 37.4815 64.6294 37.6033C64.507 37.7252 64.507 37.9216 64.6294 38.0434L65.0856 38.4973L63.7983 39.7779L63.1921 39.1749C63.0697 39.053 62.8722 39.053 62.751 39.1749C62.6285 39.2967 62.6285 39.4931 62.751 39.615L63.3571 40.218L61.3549 42.2085L60.0351 40.8956C59.9126 40.7738 59.7151 40.7738 59.5939 40.8956C59.4714 41.0175 59.4714 41.2139 59.5939 41.3357L60.9137 42.6487L58.6153 44.9351C58.4928 45.057 58.4928 45.2534 58.6153 45.3753C58.7378 45.4971 58.9353 45.4971 59.0577 45.3753L61.3562 43.0888L62.0048 43.7341C62.1273 43.8559 62.3248 43.8559 62.4473 43.7341C62.5697 43.6123 62.5697 43.4158 62.4473 43.294L61.7986 42.6487L63.8008 40.6581L64.7457 41.5981C64.8682 41.7199 65.0656 41.7199 65.1881 41.5981C65.3106 41.4762 65.3106 41.2798 65.1881 41.1579L64.2432 40.218L65.5306 38.9374L65.8968 39.3017L65.9105 39.344C65.9655 39.5106 66.148 39.5951 66.3055 39.5416C66.4692 39.4869 66.5579 39.3116 66.5042 39.1487L66.4667 39.0368C66.4517 38.9908 66.4254 38.9486 66.3917 38.915L65.9693 38.4973L66.5017 37.9676C66.6242 37.8458 66.6242 37.6493 66.5017 37.5275C66.3792 37.4069 66.1817 37.4069 66.0605 37.5275Z" fill="#C6C6C6"/>
</svg>
