<svg width="80" height="45" viewBox="0 0 80 45" fill="none" xmlns="http://www.w3.org/2000/svg">
<path d="M57.915 33.7374C57.915 34.7603 57.0923 35.5843 56.071 35.5843C55.0497 35.5843 54.2271 34.7603 54.2271 33.7374C54.2271 32.7146 55.0497 31.8906 56.071 31.8906C57.0923 31.8906 57.915 32.7146 57.915 33.7374Z" fill="#737373"/>
<path d="M56.7376 43.0974C56.7376 43.4667 56.4398 43.7651 56.071 43.7651C55.7022 43.7651 55.4043 43.4667 55.4043 43.0974C55.4043 42.728 55.7022 42.4297 56.071 42.4297C56.4398 42.4439 56.7376 42.728 56.7376 43.0974Z" fill="#FF9C03"/>
<path d="M65.007 29.4873C65.7162 30.2119 65.7021 31.3768 64.9787 32.1013C64.2553 32.8116 63.0921 32.7974 62.3829 32.0729C61.6737 31.3484 61.6737 30.1834 62.4113 29.4589C63.1347 28.7486 64.2978 28.7486 65.007 29.4873Z" fill="#737373"/>
<path d="M70.7236 36.9905C70.9789 37.2462 70.9789 37.6724 70.7094 37.9281C70.4541 38.1838 70.0286 38.1838 69.7732 37.9139C69.5179 37.644 69.5179 37.232 69.7874 36.9763C70.0428 36.7348 70.4683 36.7348 70.7236 36.9905Z" fill="#FF9C03"/>
<path d="M49.8014 32.4595C49.078 33.1841 47.9149 33.1841 47.1915 32.4595C46.4681 31.735 46.4681 30.5701 47.1915 29.8598C47.9149 29.1353 49.078 29.1353 49.8014 29.8598C50.5248 30.5701 50.5248 31.735 49.8014 32.4595Z" fill="#737373"/>
<path d="M42.3547 38.2544C42.0994 38.5101 41.6739 38.5101 41.4185 38.2544C41.1632 37.9987 41.1632 37.5725 41.4185 37.3168C41.6739 37.0611 42.0994 37.0611 42.3547 37.3168C42.61 37.5725 42.61 37.9987 42.3547 38.2544Z" fill="#FF9C03"/>
<path d="M57.135 38.8935C57.135 39.4901 56.6527 39.9589 56.0712 39.9589C55.4754 39.9589 55.0073 39.4759 55.0073 38.8935C55.0073 38.2968 55.4896 37.828 56.0712 37.828C56.6669 37.828 57.135 38.311 57.135 38.8935ZM68.0712 33.7082C68.4825 34.1343 68.4825 34.802 68.057 35.2282C67.6314 35.6402 66.9648 35.6402 66.5392 35.214C66.1279 34.7878 66.1279 34.1201 66.5534 33.694C66.979 33.282 67.6598 33.282 68.0712 33.7082Z" fill="#A6A6A6"/>
<path d="M45.6082 35.5685C46.0234 35.1522 46.0231 34.4776 45.6074 34.0617C45.1917 33.6458 44.5181 33.6462 44.1029 34.0626C43.6877 34.4789 43.6881 35.1535 44.1037 35.5694C44.5194 35.9852 45.193 35.9848 45.6082 35.5685Z" fill="#A6A6A6"/>
<path d="M47.3902 15.6379C46.681 14.9134 46.681 13.7485 47.4186 13.024C48.142 12.3137 49.3051 12.3279 50.0285 13.0524C50.7378 13.7769 50.7236 14.9418 50.0002 15.6663C49.2626 16.3767 48.0995 16.3625 47.3902 15.6379Z" fill="#737373"/>
<path d="M41.6736 8.12375C41.4183 7.86804 41.4183 7.44185 41.6878 7.18614C41.9431 6.93043 42.3687 6.93043 42.624 7.20035C42.8793 7.47026 42.8793 7.88225 42.6098 8.13796C42.3545 8.39367 41.929 8.39367 41.6736 8.12375Z" fill="#FF9C03"/>
<path d="M62.0708 12.9262C62.7942 12.2017 63.9573 12.2017 64.6666 12.9262C65.39 13.6507 65.39 14.8156 64.6666 15.5402C63.9432 16.2647 62.78 16.2647 62.0566 15.5402C61.3616 14.8156 61.3616 13.6507 62.0708 12.9262Z" fill="#737373"/>
<path d="M44.3263 11.4054C43.9149 10.9792 43.9149 10.3115 44.3405 9.89955C44.766 9.48757 45.4327 9.48757 45.8582 9.91376C46.2696 10.3399 46.2696 11.0076 45.844 11.4338C45.4185 11.8458 44.7376 11.8316 44.3263 11.4054ZM66.2696 9.82852C66.6809 9.41654 67.3618 9.41654 67.7731 9.82852C68.1844 10.2405 68.1844 10.9224 67.7731 11.3486C67.3618 11.7606 66.6809 11.7748 66.2554 11.3486C65.844 10.9224 65.844 10.2405 66.2696 9.82852Z" fill="#A6A6A6"/>
<path d="M69.5177 7.12928C69.773 6.87357 70.1985 6.87357 70.4538 7.12928C70.7092 7.385 70.7092 7.81119 70.4538 8.0669C70.1985 8.32261 69.773 8.32261 69.5177 8.0669C69.2623 7.81119 69.2623 7.3992 69.5177 7.12928ZM78.7801 22.0601C79.1489 22.0601 79.4467 22.3584 79.4467 22.7278C79.4467 23.0972 79.1489 23.3955 78.7801 23.3955C78.4113 23.3955 78.1134 23.0972 78.1134 22.7278C78.1276 22.3584 78.4255 22.0601 78.7801 22.0601Z" fill="#FF9C03"/>
<path d="M1.29102 18.0689H4.48251C8.213 18.0689 10.6811 19.9299 10.6811 22.7286C10.6811 25.513 8.213 27.3882 4.48251 27.3882H1.29102V18.0689ZM4.35485 26.0954C7.37612 26.0954 8.79456 24.7032 8.79456 22.7144C8.79456 20.7255 7.37612 19.3333 4.35485 19.3333H3.09243V26.0954H4.35485ZM14.5818 18.0689H16.369V27.374H14.5818V18.0689ZM26.1704 19.3333H21.2343V18.0547H28.9931L23.1492 26.0812H28.8797V27.3598H20.2981L26.1704 19.3333ZM37.9009 19.3333H32.9648V18.0547H40.7236L34.8797 26.0812H40.596V27.3598H32.0144L37.9009 19.3333ZM44.8371 18.0689H46.6385V27.374H44.8371V18.0689Z" fill="#737373"/>
<path d="M54.2271 11.9718C54.2271 10.949 55.0497 10.125 56.071 10.125C57.0923 10.125 57.915 10.949 57.915 11.9718C57.915 12.9947 57.0923 13.8186 56.071 13.8186C55.0497 13.8186 54.2271 12.9947 54.2271 11.9718Z" fill="#737373"/>
<path d="M56.071 3.2768C56.4392 3.2768 56.7376 2.97786 56.7376 2.6091C56.7376 2.24034 56.4392 1.94141 56.071 1.94141C55.7028 1.94141 55.4043 2.24034 55.4043 2.6091C55.4043 2.97786 55.7028 3.2768 56.071 3.2768Z" fill="#FF9C03"/>
<path d="M56.0712 7.88094C56.6587 7.88094 57.135 7.40392 57.135 6.81547C57.135 6.22703 56.6587 5.75 56.0712 5.75C55.4836 5.75 55.0073 6.22703 55.0073 6.81547C55.0073 7.40392 55.4836 7.88094 56.0712 7.88094Z" fill="#A6A6A6"/>
<path d="M60.525 22.7108C60.525 25.1685 58.5392 27.1715 56.0711 27.1715C53.6172 27.1715 51.6172 25.1685 51.6172 22.7108C51.6172 20.2531 53.6172 18.25 56.0711 18.25C58.525 18.25 60.525 20.2531 60.525 22.7108Z" fill="#FF9C03"/>
<path d="M56.071 27.9686C53.1773 27.9686 50.8369 25.6104 50.8369 22.7265C50.8369 19.8284 53.1915 17.4844 56.071 17.4844C58.9646 17.4844 61.305 19.8426 61.305 22.7265C61.305 25.6104 58.9504 27.9686 56.071 27.9686ZM56.071 19.0471C54.0568 19.0471 52.4114 20.695 52.4114 22.7265C52.4114 24.758 54.0568 26.3917 56.071 26.3917C58.0993 26.3917 59.7447 24.7438 59.7447 22.7265C59.7305 20.695 58.0851 19.0471 56.071 19.0471Z" fill="#737373"/>
<path d="M73.7872 24.3736V18.0234H75.1489V27.428L66.5248 21.1204V27.2859H65.1631V18.0376L73.7872 24.3736Z" fill="#737373"/>
</svg>
