<svg width="20" height="20" viewBox="0 0 20 20" fill="none" xmlns="http://www.w3.org/2000/svg">
<path d="M16.5407 3.45926C16.8336 3.16637 16.8354 2.68908 16.5213 2.41894C14.7135 0.863654 12.4013 -2.57618e-07 10 0C7.34783 2.84536e-07 4.80429 1.05357 2.92893 2.92893C1.05357 4.8043 -8.4303e-08 7.34783 0 10C7.63277e-08 12.4013 0.863655 14.7135 2.41894 16.5214C2.68908 16.8354 3.16637 16.8336 3.45926 16.5407V16.5407C3.75216 16.2478 3.74922 15.7749 3.48327 15.4573C2.20717 13.9336 1.5 12.0033 1.5 10C1.5 7.74566 2.39553 5.58365 3.98959 3.98959C5.58365 2.39553 7.74566 1.5 10 1.5C12.0033 1.5 13.9336 2.20717 15.4573 3.48327C15.7749 3.74922 16.2478 3.75215 16.5407 3.45926V3.45926Z" fill="#393939"/>
<path d="M2.48148 15.3883C2.1448 15.6296 2.06537 16.1003 2.33121 16.4179C3.09703 17.333 4.02183 18.1052 5.06304 18.6963C6.32206 19.4111 7.72126 19.8439 9.16394 19.965C10.6066 20.086 12.0584 19.8924 13.4189 19.3974C14.7794 18.9024 16.0162 18.1179 17.0439 17.0982C18.0715 16.0784 18.8655 14.8476 19.3709 13.491C19.8763 12.1343 20.0811 10.6841 19.9711 9.24049C19.8612 7.79692 19.4391 6.39443 18.734 5.12997C18.1509 4.08425 17.3858 3.15355 16.4766 2.38072C16.161 2.11245 15.6898 2.18826 15.4459 2.52308V2.52308C15.2021 2.85789 15.2783 3.32461 15.5904 3.59704C16.3258 4.23916 16.9466 5.00448 17.4239 5.86047C18.0232 6.93527 18.382 8.12738 18.4754 9.35442C18.5689 10.5815 18.3948 11.8142 17.9652 12.9673C17.5356 14.1205 16.8608 15.1666 15.9873 16.0334C15.1138 16.9003 14.0625 17.5671 12.9061 17.9878C11.7496 18.4085 10.5156 18.5731 9.28935 18.4702C8.06307 18.3674 6.87375 17.9994 5.80358 17.3919C4.95128 16.908 4.19075 16.2814 3.5543 15.541C3.28428 15.2269 2.81815 15.1471 2.48148 15.3883V15.3883Z" fill="#8CBBF9"/>
</svg>
