<svg width="24" height="24" viewBox="0 0 24 24" fill="none" xmlns="http://www.w3.org/2000/svg">
<path d="M16.9 3.99995C16.6 3.99995 16.4 4.19995 16.1 4.29995L3.3 13C2.4 13.6 2.2 14.9 2.8 15.8L5 19.1C5.4 19.8 6.2 20.1 7 19.9C7.3 19.9 7.5 19.7 7.8 19.6L20.7 11C21.6 10.4 21.8 9.09995 21.2 8.19995L19 4.89995C18.5 4.19995 17.7 3.89995 16.9 3.99995ZM16.9 9.89995L18.1 8.99995L16.1 6.09995L17 5.59995C17.1 5.59995 17.1 5.49995 17.2 5.49995C17.4 5.49995 17.6 5.49995 17.7 5.69995L19.9 8.99995C20.1 9.19995 20 9.49995 19.8 9.69995L7 18.4C6.9 18.4 6.9 18.5 6.8 18.5C6.6 18.5 6.4 18.5 6.3 18.3L4.1 15C3.9 14.8 4 14.5 4.2 14.3L5 13.7L7 16.6L8.2 15.8L6.2 12.9L7.5 12L8.6 13.7L9.8 12.9L8.7 11.2L9.9 10.4L11.9 13.3L13.1 12.5L11.1 9.59995L12.3 8.79995L13.4 10.5L14.6 9.69995L13.5 7.99995L14.9 6.99995L16.9 9.89995Z" fill="black"/>
</svg>
