<svg width="15" height="14" viewBox="0 0 15 14" fill="none" xmlns="http://www.w3.org/2000/svg">
<path d="M13.2299 3.87738H1.42704C0.961438 3.87738 0.583984 3.46558 0.583984 2.9576V1.11803C0.583984 0.610047 0.961438 0.198242 1.42704 0.198242H13.2299C13.6955 0.198242 14.0729 0.610047 14.0729 1.11803V2.9576C14.0729 3.46558 13.6955 3.87738 13.2299 3.87738ZM11.9653 1.34797C11.6161 1.34797 11.333 1.65682 11.333 2.03781C11.333 2.4188 11.6161 2.72765 11.9653 2.72765C12.3145 2.72765 12.5976 2.4188 12.5976 2.03781C12.5976 1.65682 12.3145 1.34797 11.9653 1.34797ZM10.2792 1.34797C9.92995 1.34797 9.64687 1.65682 9.64687 2.03781C9.64687 2.4188 9.92995 2.72765 10.2792 2.72765C10.6284 2.72765 10.9115 2.4188 10.9115 2.03781C10.9115 1.65682 10.6284 1.34797 10.2792 1.34797ZM13.2299 8.4763H1.42704C0.961438 8.4763 0.583984 8.0645 0.583984 7.55652V5.71695C0.583984 5.20897 0.961438 4.79717 1.42704 4.79717H13.2299C13.6955 4.79717 14.0729 5.20897 14.0729 5.71695V7.55652C14.0729 8.0645 13.6955 8.4763 13.2299 8.4763ZM11.9653 5.9469C11.6161 5.9469 11.333 6.25574 11.333 6.63673C11.333 7.01773 11.6161 7.32657 11.9653 7.32657C12.3145 7.32657 12.5976 7.01773 12.5976 6.63673C12.5976 6.25574 12.3145 5.9469 11.9653 5.9469ZM10.2792 5.9469C9.92995 5.9469 9.64687 6.25574 9.64687 6.63673C9.64687 7.01773 9.92995 7.32657 10.2792 7.32657C10.6284 7.32657 10.9115 7.01773 10.9115 6.63673C10.9115 6.25574 10.6284 5.9469 10.2792 5.9469ZM13.2299 13.0752H1.42704C0.961438 13.0752 0.583984 12.6634 0.583984 12.1554V10.3159C0.583984 9.80789 0.961438 9.39609 1.42704 9.39609H13.2299C13.6955 9.39609 14.0729 9.80789 14.0729 10.3159V12.1554C14.0729 12.6634 13.6955 13.0752 13.2299 13.0752ZM11.9653 10.5458C11.6161 10.5458 11.333 10.8547 11.333 11.2357C11.333 11.6167 11.6161 11.9255 11.9653 11.9255C12.3145 11.9255 12.5976 11.6167 12.5976 11.2357C12.5976 10.8547 12.3145 10.5458 11.9653 10.5458ZM10.2792 10.5458C9.92995 10.5458 9.64687 10.8547 9.64687 11.2357C9.64687 11.6167 9.92995 11.9255 10.2792 11.9255C10.6284 11.9255 10.9115 11.6167 10.9115 11.2357C10.9115 10.8547 10.6284 10.5458 10.2792 10.5458Z" fill="#8CBBF9"/>
</svg>
