<svg width="80" height="76" viewBox="0 0 80 76" fill="none" xmlns="http://www.w3.org/2000/svg">
<path d="M4.01361 18.4295C3.68929 27.6425 3.36496 36.8477 3.04784 46.0539C2.95295 48.7481 2.48928 55.1923 8.39922 57.4263C11.1656 58.4716 12.9001 58.0269 28.1254 58.0017L25.3362 59.9935C22.7368 61.8419 20.0149 64.3016 21.7182 66.9696C22.8678 68.7851 25.7086 69.2927 27.9308 68.849C32.0306 68.0256 41.4636 60.6804 44.158 58.0918C50.8607 58.1907 57.5935 58.3553 64.1701 58.583C72.7239 58.8843 76.5965 57.0872 76.6662 48.2957C76.8188 33.5074 76.9293 21.1934 76.9989 14.5196C77.0482 9.56917 75.3941 7.15403 66.9485 7.13466L15.162 7C6.46167 7.04456 4.34875 9.15357 4.12652 15.1251L4.01361 18.4295ZM5.30731 15.7703L6.26227 16.5404L5.25326 17.3542L5.30731 15.7703ZM5.50791 12.9695L5.85746 13.2515L5.42503 13.6002C5.44665 13.3861 5.47548 13.1769 5.50791 12.9695ZM27.6402 67.9103C25.9284 68.2513 23.6437 67.8861 22.7849 66.5288C21.4023 64.3636 24.0197 62.2217 26.129 60.7211C26.135 60.7172 43.6546 48.2104 43.6546 48.2104C43.8396 48.0661 43.8913 47.8432 43.782 47.6563C42.439 45.34 42.2036 41.7187 45.9574 39.135C48.1676 37.6082 51.6006 37.0279 54.5616 37.769C52.8283 39.3704 50.8403 40.0805 49.5526 41.9531C47.2727 45.246 50.3946 48.1872 54.5244 47.5991C56.8499 47.2581 59.0841 45.804 60.7178 44.4167C60.9929 49.3138 54.6337 53.278 48.6132 51.4083C48.3237 51.3182 47.9141 51.5623 47.776 51.7871C46.6661 53.7886 45.1922 55.5895 43.4264 57.2945C43.4264 57.2955 43.4252 57.2955 43.4252 57.2965C40.9027 59.7562 31.436 67.1479 27.6402 67.9103ZM48.3261 51.9828L48.3382 51.9847L48.337 51.9867L48.3261 51.9828ZM64.2217 57.6171C57.9442 57.3992 51.5274 57.2384 45.1285 57.1376C46.415 55.8085 47.7856 54.0773 48.7165 52.4623C55.8121 54.2962 63.2031 49.2189 61.7436 43.1757C61.6451 42.7679 60.9941 42.6439 60.6782 42.9723C59.6475 44.0496 56.8931 46.2671 54.3154 46.6459C51.1033 47.1012 48.8511 44.9573 50.6048 42.4249C51.8661 40.5891 53.7388 40.1803 56.0403 37.8523C56.0991 37.7933 56.1388 37.7245 56.158 37.6518C56.2193 37.4242 56.0679 37.1926 55.8024 37.1035C52.2877 35.9197 48.0174 36.4399 45.1778 38.3987C41.7748 40.7412 40.7549 44.378 42.5183 47.7454C42.5183 47.7454 40.1543 49.4127 29.4876 57.0281C12.6022 57.033 11.4082 57.4951 8.90973 56.5505C3.88628 54.6517 4.14454 49.0542 4.25025 46.082C4.56136 37.0376 4.87968 27.9932 5.1992 18.943C40.6624 20.3438 70.313 18.7143 75.7605 18.1893C75.6644 28.2267 75.5695 38.2592 75.4662 48.2908C75.3989 56.4246 72.2109 57.901 64.2217 57.6171ZM25.7579 7.99686L25.3627 8.31559L24.9651 7.99492L25.7579 7.99686ZM18.0485 8.24002L17.7206 7.97555L18.4425 7.97749C18.4029 7.98911 18.3584 7.99008 18.326 8.01624L18.0485 8.24002ZM16.8677 7.97264L17.6233 8.582L16.5902 9.41417C16.4725 9.50911 16.4725 9.66217 16.5902 9.75614C16.708 9.85108 16.8978 9.85108 17.0155 9.75614L18.0485 8.92397L18.8077 9.53527C18.9254 9.6302 19.1152 9.6302 19.2317 9.53527C19.3494 9.44033 19.3494 9.28726 19.2317 9.19232L18.4737 8.58103L18.7512 8.35724C18.8689 8.2623 18.8689 8.10924 18.7512 8.0143C18.72 7.98911 18.6755 7.98717 18.6359 7.97555L20.2551 7.97942C20.2611 7.98524 20.2587 7.99299 20.2647 7.99783L21.7338 9.18263L21.323 9.51395C21.2053 9.60889 21.2053 9.76196 21.323 9.85593C21.4407 9.95087 21.6305 9.95087 21.7482 9.85593L22.1578 9.52461L22.4305 9.74452C22.5482 9.83946 22.738 9.83946 22.8557 9.74452C22.9735 9.64958 22.9735 9.49651 22.8557 9.40158L22.5819 9.18457L23.3843 8.53647C23.502 8.44153 23.502 8.28846 23.3843 8.19449C23.2666 8.09955 23.0768 8.09955 22.959 8.19449L22.1566 8.8426L21.0924 7.98427L24.1182 7.99202C24.1206 7.99396 24.1194 7.99783 24.1218 7.99977L24.9362 8.65659L24.6191 8.91235C24.5014 9.00729 24.5014 9.16035 24.6191 9.25432C24.7368 9.34926 24.9266 9.34926 25.0431 9.25432L25.3603 8.99857L25.9272 9.45583C26.0449 9.55077 26.2347 9.55077 26.3525 9.45583C26.4702 9.36089 26.4702 9.20782 26.3525 9.11288L25.7855 8.65562L26.3296 8.21677C26.4053 8.15574 26.4137 8.07436 26.3921 7.99589L66.9412 8.10343C74.7335 8.12086 75.8374 10.1282 75.7941 14.5118L75.7665 17.2098C72.0163 17.5857 42.5591 19.4419 5.32773 17.9742L6.68389 16.8805L6.79801 16.9725C6.91573 17.0674 7.10552 17.0674 7.22203 16.9725C7.33975 16.8776 7.33975 16.7245 7.22203 16.6296L7.11032 16.5404L9.15478 14.8916C9.2725 14.7966 9.2725 14.6436 9.15478 14.5486C9.03706 14.4537 8.84727 14.4537 8.73075 14.5486L6.6863 16.1975L5.33013 15.1047C5.33974 14.8422 5.35176 14.5835 5.36737 14.3287C5.36857 14.3278 5.37218 14.3278 5.37338 14.3268L6.28149 13.5944L7.70492 14.7424C7.82264 14.8373 8.01243 14.8373 8.12895 14.7424C8.24546 14.6475 8.24666 14.4944 8.12895 14.4004L6.70672 13.2515L8.86889 11.5077C8.92895 11.4592 8.95658 11.3943 8.95418 11.3304L9.69172 11.9252C9.80943 12.0202 9.99923 12.0202 10.1169 11.9252C10.2347 11.8303 10.2347 11.6772 10.1169 11.5832L8.13856 9.98768L9.03826 9.26207C9.15598 9.16713 9.15598 9.01407 9.03826 8.91913C8.92054 8.82419 8.73075 8.82419 8.61303 8.91913L7.71333 9.6457L7.47789 9.45486C8.02805 9.0596 8.66829 8.76219 9.3782 8.55003C9.39262 8.58587 9.39622 8.62462 9.43105 8.65272L11.9067 10.6493C12.0245 10.7443 12.2143 10.7443 12.3308 10.6493C12.4485 10.5544 12.4485 10.4013 12.3308 10.3074L12.0293 10.0632L13.6905 8.72344L14.6923 9.53139C14.8101 9.62633 14.9999 9.62633 15.1176 9.53139C15.2353 9.43645 15.2353 9.28339 15.1176 9.18845L14.1158 8.38049L14.6227 7.97167C14.8017 7.97167 14.9818 7.9678 15.1584 7.96877L16.8677 7.97264ZM12.8161 8.01914L13.2653 8.38146L11.604 9.72127L9.96079 8.39503C10.8581 8.18577 11.8251 8.07146 12.8161 8.01914ZM13.6293 7.98911C13.6725 7.98814 13.7146 7.98621 13.7566 7.98524L13.6905 8.03852L13.6293 7.98911ZM7.03825 9.78521L7.2893 9.98768L6.87849 10.319C6.76077 10.4139 6.76077 10.567 6.87849 10.661C6.99621 10.7559 7.186 10.7559 7.30372 10.661L7.71453 10.3297L8.66468 11.096C8.5842 11.095 8.50492 11.1163 8.44366 11.1647L6.28149 12.9085L5.62323 12.3786C5.84305 11.4156 6.23945 10.5166 7.03825 9.78521Z" fill="#C6C6C6"/>
<path d="M55.4328 15.8554C56.7842 15.402 57.6443 14.1746 57.4352 12.9995C57.0605 10.9118 53.5445 10.2085 51.804 11.68C50.7854 12.5422 50.6604 13.9808 51.5193 14.9564C52.3758 15.931 54.0598 16.3175 55.4328 15.8554ZM52.6725 12.3485C53.7415 11.4465 56.019 11.8757 56.2448 13.138C56.377 13.8762 55.8172 14.6774 54.9704 14.9612C54.1283 15.2441 53.0208 14.9893 52.4971 14.3964C51.9697 13.7958 52.049 12.8774 52.6725 12.3485Z" fill="#C6C6C6"/>
<path d="M62.9018 15.8558C64.2531 15.4024 65.1132 14.175 64.903 12.9999C64.5306 10.9151 61.0159 10.2069 59.2729 11.6794C58.2543 12.5416 58.1294 13.9802 58.9871 14.9558C59.8399 15.9275 61.5192 16.3198 62.9018 15.8558ZM60.1414 12.3488C61.2069 11.4469 63.488 11.8732 63.7138 13.1384C63.8459 13.8766 63.2874 14.6778 62.4393 14.9616C61.5961 15.2445 60.4874 14.9897 59.966 14.3968C59.4375 13.7962 59.5168 12.8778 60.1414 12.3488Z" fill="#C6C6C6"/>
<path d="M70.769 15.8557C72.1203 15.4023 72.9804 14.1748 72.7702 12.9997C72.3966 10.912 68.8783 10.2087 67.1401 11.6793C66.1215 12.5415 65.9966 13.9801 66.8542 14.9557C67.7071 15.9273 69.3876 16.3197 70.769 15.8557ZM68.0086 12.3487C69.0741 11.4468 71.3552 11.873 71.581 13.1383C71.7131 13.8765 71.1546 14.6776 70.3065 14.9615C69.4645 15.2444 68.3545 14.9896 67.8332 14.3967C67.3059 13.7961 67.384 12.8777 68.0086 12.3487Z" fill="#C6C6C6"/>
<path d="M56.1593 21.5763C52.1833 21.4726 22.4643 20.6036 17.6726 22.5131C16.3093 23.0566 15.4084 24.036 15.3231 25.0677C15.239 26.0878 15.9537 27.1438 17.1886 27.8248C21.1465 30.0084 40.3406 30.0578 45.7701 30.0578C53.2128 30.0578 59.5395 29.8137 60.587 29.3429C62.8044 28.3451 64.4008 25.9745 63.2428 24.036C61.9876 21.9338 58.9365 21.648 56.1593 21.5763ZM60.002 28.4972C58.4056 29.1918 22.7369 29.712 17.866 27.0256C16.994 26.5451 16.4666 25.802 16.5219 25.1326C16.5771 24.4545 17.2378 23.7667 18.2048 23.3821C20.8126 22.3416 35.6619 22.2428 38.5748 22.2428C44.468 22.2428 50.3443 22.3949 56.1197 22.5441C57.6704 22.5838 61.0446 22.5867 62.1593 24.4555C63.0254 25.9028 61.7425 27.7134 60.002 28.4972Z" fill="#C6C6C6"/>
<path d="M26.8502 23.7926C26.5138 23.7587 26.2183 23.9418 26.1739 24.2072C26.0742 24.8021 25.8195 25.3882 25.4388 25.9026C25.0255 26.4606 24.861 26.3201 24.7228 25.9597C24.6472 25.7679 24.5823 25.6023 24.5991 25.4637C24.6279 25.2128 24.4129 24.9852 24.1054 24.9416C23.7979 24.8941 23.5 25.051 23.4207 25.2952C23.2838 25.7147 23.1589 26.0528 22.8946 26.2765C22.7012 26.4412 22.3721 26.5061 22.2291 26.4151C21.852 26.17 22.1667 24.9203 22.3132 24.5444C22.4117 24.2886 22.2363 24.0174 21.9204 23.937C21.6009 23.8556 21.2658 23.998 21.1673 24.2537C19.9348 27.4206 22.4874 28.0261 23.7655 26.944C23.8171 26.9004 23.8652 26.8549 23.9096 26.8084C24.897 27.812 26.8982 27.0903 27.3655 24.3371C27.4087 24.0736 27.1793 23.8294 26.8502 23.7926Z" fill="#C6C6C6"/>
<path d="M32.5844 24.0581C32.2914 24.0639 31.9778 24.2615 31.967 24.5289C31.9466 25.1112 31.698 25.6866 31.2643 26.1516C31.1971 26.2233 31.1406 26.2669 31.1274 26.294C30.9712 26.0925 30.6733 25.4919 30.7046 25.1896C30.731 24.9348 30.5076 24.7081 30.194 24.6704C29.8817 24.6374 29.585 24.7992 29.519 25.0482C29.2787 25.952 28.522 26.4452 28.522 26.4452C28.2937 26.1933 28.4907 25.085 28.6349 24.7217C28.7358 24.4669 28.5628 24.1947 28.2469 24.1124C27.931 24.0319 27.5922 24.1715 27.4913 24.4253C26.4607 27.0177 28.2697 28.1618 29.6691 26.885C29.7736 26.79 29.8721 26.6902 29.9622 26.5876C30.8775 28.2577 33.0926 26.6941 33.167 24.5541C33.1766 24.2887 32.916 24.0659 32.5844 24.0581Z" fill="#C6C6C6"/>
<path d="M38.702 24.0581C38.3837 24.0639 38.0942 24.2615 38.0846 24.5289C38.0654 25.1112 37.8155 25.6866 37.3819 26.1526C37.3158 26.2243 37.2581 26.2679 37.2461 26.294C37.0912 26.0964 36.7921 25.4919 36.8221 25.1906C36.887 24.5841 35.7903 24.4727 35.6365 25.0492C35.3975 25.9501 34.6395 26.4461 34.6395 26.4461C34.4065 26.2185 34.6131 25.0714 34.7524 24.7227C34.8533 24.4679 34.6804 24.1957 34.3644 24.1133C34.0509 24.0329 33.711 24.1715 33.6089 24.4262C32.5482 27.0903 34.5182 28.3594 36.081 26.5876C36.9987 28.2703 39.2137 26.6767 39.2846 24.5541C39.2954 24.2877 39.0335 24.0659 38.702 24.0581Z" fill="#C6C6C6"/>
<path d="M39.7357 26.1196H39.499C39.1675 26.1196 38.8984 26.3366 38.8984 26.604C38.8984 26.8714 39.1675 27.0884 39.499 27.0884H39.7357C40.0672 27.0884 40.3363 26.8714 40.3363 26.604C40.3363 26.3366 40.0684 26.1196 39.7357 26.1196Z" fill="#C6C6C6"/>
<path d="M27.0961 37.5513L25.9021 38.5143L25.3171 38.0425C25.1994 37.9475 25.0096 37.9475 24.8919 38.0425C24.7742 38.1374 24.7742 38.2905 24.8919 38.3854L25.4769 38.8572L23.7964 40.2125L23.2751 39.7921C23.1574 39.6971 22.9676 39.6971 22.8511 39.7921C22.7333 39.887 22.7333 40.0401 22.8511 40.135L23.3724 40.5555L21.245 42.2711L20.2793 41.4884C20.1615 41.3934 19.9718 41.3934 19.8552 41.4884C19.7375 41.5833 19.7375 41.7364 19.8552 41.8304L20.8234 42.6112L19.0793 44.0178L17.4732 42.7226C17.3555 42.6277 17.1657 42.6277 17.048 42.7226C16.9303 42.8175 16.9303 42.9706 17.048 43.0655L18.654 44.3608L16.5375 46.0677C16.4198 46.1627 16.4198 46.3158 16.5375 46.4107C16.6552 46.5056 16.845 46.5056 16.9627 46.4107L19.0781 44.7037L20.367 45.7432C20.4847 45.8381 20.6745 45.8381 20.7922 45.7432C20.9099 45.6483 20.9099 45.4952 20.7922 45.4003L19.5033 44.3608L21.2474 42.9541L22.1303 43.6662C22.248 43.7611 22.4378 43.7611 22.5556 43.6662C22.6733 43.5712 22.6733 43.4182 22.5556 43.3232L21.6727 42.6112L23.8 40.8965L24.8066 41.7083C24.9243 41.8032 25.1141 41.8032 25.2306 41.7083C25.3484 41.6134 25.3484 41.4603 25.2306 41.3653L24.224 40.5545L25.9045 39.1992L26.8403 39.9539C26.958 40.0488 27.1478 40.0488 27.2655 39.9539C27.3832 39.8589 27.3832 39.7058 27.2655 39.6109L26.3297 38.8562L27.5237 37.8933C27.6415 37.7983 27.6415 37.6453 27.5237 37.5503C27.4036 37.4564 27.2138 37.4564 27.0961 37.5513Z" fill="#C6C6C6"/>
</svg>
