<svg width="40" height="40" viewBox="0 0 40 40" fill="none" xmlns="http://www.w3.org/2000/svg">
<path d="M33.3752 10.0001H22.2011C21.8568 10.0001 21.5767 10.2894 21.5767 10.6449V13.5648H18.4223V10.6449C18.4223 10.2893 18.1422 10 17.7979 10H6.62391C6.27957 10.0001 5.99951 10.2893 5.99951 10.6449V17.8062C5.99951 18.1618 6.27957 18.4511 6.62391 18.4511H10.463V18.8104H9.95478C9.61056 18.8104 9.33051 19.0998 9.33051 19.4554C9.33051 19.811 9.61056 20.1003 9.95478 20.1003H12.094V23.5114C12.094 23.9378 12.43 24.2847 12.843 24.2847H17.8117V24.85H17.1098C16.6968 24.85 16.3609 25.197 16.3609 25.6236C16.3609 26.0501 16.6968 26.3972 17.1098 26.3972H19.5171V27.7159H18.1904C17.9244 27.7159 17.708 27.9395 17.708 28.2143V28.3596H9.40601C9.14 28.3596 8.92357 28.5832 8.92357 28.858C8.92357 29.1327 9.14 29.3563 9.40601 29.3563H17.7079V29.5016C17.7079 29.7764 17.9244 30 18.1904 30H21.8087C22.0747 30 22.2911 29.7764 22.2911 29.5016V29.3563H30.593C30.859 29.3563 31.0755 29.1327 31.0755 28.858C31.0755 28.5832 30.859 28.3596 30.593 28.3596H22.2911V28.2143C22.2911 27.9395 22.0747 27.7159 21.8087 27.7159H20.4819V26.3972H22.8893C23.3022 26.3972 23.6381 26.0501 23.6381 25.6236C23.6381 25.197 23.3022 24.85 22.8893 24.85H22.1874V24.2847H27.1561C27.5691 24.2847 27.9051 23.9378 27.9051 23.5114V20.1003H30.0443C30.3885 20.1003 30.6686 19.811 30.6686 19.4554C30.6686 19.0998 30.3886 18.8104 30.0443 18.8104H29.536V18.4511H33.3752C33.7195 18.4511 33.9995 18.1618 33.9995 17.8062V10.6449C33.9996 10.2893 33.7195 10.0001 33.3752 10.0001ZM12.094 14.3383V16.7032H7.248V11.2899H17.1737V13.5648H12.843C12.43 13.5647 12.094 13.9117 12.094 14.3383ZM19.9995 23.8413C19.7337 23.8413 19.5171 23.6179 19.5171 23.343C19.5171 23.0681 19.7337 22.8446 19.9995 22.8446C20.2653 22.8446 20.4819 23.0681 20.4819 23.343C20.4819 23.6179 20.2654 23.8413 19.9995 23.8413ZM26.4072 22.1509H13.5918V15.1119H26.4072V22.1509ZM32.751 16.7032H27.9051V14.3383C27.9051 13.9117 27.5691 13.5647 27.1561 13.5647H22.8254V11.2899H32.7511V16.7032H32.751Z" fill="#F4F4F4"/>
</svg>
