<svg width="24" height="24" viewBox="0 0 24 24" fill="none" xmlns="http://www.w3.org/2000/svg">
<path d="M10.15 5.00005C9.21026 4.98485 8.29369 5.29219 7.55308 5.87085C6.81247 6.44951 6.29256 7.26453 6.08001 8.18005C5.95797 8.76269 5.96752 9.36523 6.10796 9.94371C6.2484 10.5222 6.51618 11.062 6.89178 11.5239C7.26738 11.9857 7.74133 12.3579 8.27905 12.6133C8.81678 12.8686 9.40472 13.0008 10 13V19H12V7.00005H14V19H16V7.00005H18V5.00005H10.15ZM8.00001 9.00005C8.00001 8.46962 8.21072 7.96091 8.5858 7.58584C8.96087 7.21076 9.46958 7.00005 10 7.00005V11C9.46958 11 8.96087 10.7893 8.5858 10.4143C8.21072 10.0392 8.00001 9.53048 8.00001 9.00005Z" fill="black"/>
</svg>
