<svg width="20" height="20" viewBox="0 0 20 20" fill="none" xmlns="http://www.w3.org/2000/svg">
<path d="M9.99984 1.66699C5.39984 1.66699 1.6665 5.40033 1.6665 10.0003C1.6665 14.6003 5.39984 18.3337 9.99984 18.3337C14.5998 18.3337 18.3332 14.6003 18.3332 10.0003C18.3332 5.40033 14.5998 1.66699 9.99984 1.66699ZM9.99984 16.667C6.3165 16.667 3.33317 13.6837 3.33317 10.0003C3.33317 6.31699 6.3165 3.33366 9.99984 3.33366C13.6832 3.33366 16.6665 6.31699 16.6665 10.0003C16.6665 13.6837 13.6832 16.667 9.99984 16.667Z" fill="#F4DE88"/>
<path d="M5.83317 11.2503C6.52353 11.2503 7.08317 10.6907 7.08317 10.0003C7.08317 9.30997 6.52353 8.75033 5.83317 8.75033C5.14281 8.75033 4.58317 9.30997 4.58317 10.0003C4.58317 10.6907 5.14281 11.2503 5.83317 11.2503Z" fill="#F4DE88"/>
<path d="M9.99984 11.2503C10.6902 11.2503 11.2498 10.6907 11.2498 10.0003C11.2498 9.30997 10.6902 8.75033 9.99984 8.75033C9.30948 8.75033 8.74984 9.30997 8.74984 10.0003C8.74984 10.6907 9.30948 11.2503 9.99984 11.2503Z" fill="#F4DE88"/>
<path d="M14.1665 11.2503C14.8569 11.2503 15.4165 10.6907 15.4165 10.0003C15.4165 9.30997 14.8569 8.75033 14.1665 8.75033C13.4761 8.75033 12.9165 9.30997 12.9165 10.0003C12.9165 10.6907 13.4761 11.2503 14.1665 11.2503Z" fill="#F4DE88"/>
</svg>
