<svg width="24" height="24" viewBox="0 0 24 24" fill="none" xmlns="http://www.w3.org/2000/svg">
<g clip-path="url(#clip0_55_341)">
<path d="M18.3528 10.792C18.6928 10.792 19.0328 10.822 19.3628 10.862V1.71202C19.3628 0.822019 18.2828 0.372019 17.6528 1.00202L1.07284 17.582C0.442844 18.212 0.882844 19.292 1.77284 19.292H10.9228C10.8828 18.962 10.8528 18.632 10.8528 18.292C10.8528 14.152 14.2128 10.792 18.3528 10.792ZM22.0628 18.782C22.0828 18.622 22.1028 18.462 22.1028 18.292C22.1028 18.122 22.0928 17.962 22.0628 17.802L23.1228 16.972C23.2128 16.892 23.2428 16.762 23.1828 16.652L22.1828 14.922C22.1228 14.812 21.9928 14.772 21.8728 14.812L20.6328 15.312C20.3728 15.112 20.0928 14.942 19.7828 14.822L19.5928 13.502C19.5828 13.382 19.4728 13.292 19.3528 13.292H17.3528C17.2328 13.292 17.1228 13.382 17.1028 13.502L16.9128 14.822C16.6128 14.952 16.3228 15.112 16.0628 15.312L14.8228 14.812C14.7128 14.772 14.5828 14.812 14.5128 14.922L13.5128 16.652C13.4528 16.762 13.4728 16.892 13.5728 16.972L14.6328 17.802C14.6128 17.962 14.6028 18.122 14.6028 18.292C14.6028 18.462 14.6128 18.622 14.6328 18.782L13.5728 19.612C13.4828 19.692 13.4528 19.822 13.5128 19.932L14.5128 21.662C14.5728 21.772 14.7028 21.812 14.8228 21.772L16.0628 21.272C16.3228 21.472 16.6028 21.642 16.9128 21.762L17.1028 23.082C17.1228 23.202 17.2228 23.292 17.3528 23.292H19.3528C19.4728 23.292 19.5828 23.202 19.6028 23.082L19.7928 21.762C20.0928 21.632 20.3828 21.472 20.6328 21.272L21.8828 21.772C21.9928 21.812 22.1228 21.772 22.1928 21.662L23.1928 19.932C23.2528 19.822 23.2228 19.692 23.1328 19.612L22.0628 18.782ZM18.3528 19.792C17.5228 19.792 16.8528 19.122 16.8528 18.292C16.8528 17.462 17.5228 16.792 18.3528 16.792C19.1828 16.792 19.8528 17.462 19.8528 18.292C19.8528 19.122 19.1828 19.792 18.3528 19.792Z" fill="black"/>
</g>
<defs>
<clipPath id="clip0_55_341">
<rect width="24" height="24" fill="white"/>
</clipPath>
</defs>
</svg>
