<svg width="24" height="24" viewBox="0 0 24 24" fill="none" xmlns="http://www.w3.org/2000/svg">
<path d="M12 5.29501C8.13 5.29501 5 8.42501 5 12.295H7C7 9.53501 9.24 7.29501 12 7.29501C14.76 7.29501 17 9.53501 17 12.295H19C19 8.42501 15.87 5.29501 12 5.29501ZM13 14.585C13.88 14.195 14.5 13.325 14.5 12.295C14.5 10.915 13.38 9.79501 12 9.79501C10.62 9.79501 9.5 10.915 9.5 12.295C9.5 13.315 10.12 14.195 11 14.585V17.885L7.59 21.295L9 22.705L12 19.705L15 22.705L16.41 21.295L13 17.885V14.585ZM12 1.29501C5.93 1.29501 1 6.22501 1 12.295H3C3 7.32501 7.03 3.29501 12 3.29501C16.97 3.29501 21 7.32501 21 12.295H23C23 6.22501 18.07 1.29501 12 1.29501Z" fill="black"/>
</svg>
