<svg width="94" height="59" viewBox="0 0 94 59" fill="none" xmlns="http://www.w3.org/2000/svg">
<g clip-path="url(#clip0_5596_212569)">
<path d="M47 57.9392C72.9574 57.9392 94 53.3703 94 47.7342C94 42.0982 72.9574 37.5293 47 37.5293C21.0426 37.5293 0 42.0982 0 47.7342C0 53.3703 21.0426 57.9392 47 57.9392Z" fill="#525252"/>
<path d="M80.7812 19.6959L65.8793 2.92772C65.164 1.78477 64.1198 1.09375 63.0197 1.09375H30.9803C29.8803 1.09375 28.836 1.78477 28.1207 2.92626L13.2188 19.6973V33.1664H80.7812V19.6959Z" stroke="#525252" stroke-width="1.46875"/>
<path d="M61.1191 24.3179C61.1191 21.978 62.579 20.0464 64.39 20.0449H80.7812V46.4859C80.7812 49.5809 78.8425 52.1176 76.4484 52.1176H17.5516C15.1575 52.1176 13.2188 49.5794 13.2188 46.4859V20.0449H29.61C31.421 20.0449 32.8809 21.9737 32.8809 24.3135V24.3456C32.8809 26.6854 34.357 28.5748 36.1665 28.5748H57.8335C59.643 28.5748 61.1191 26.6679 61.1191 24.3281V24.3179Z" fill="#393939" stroke="#525252" stroke-width="1.46875"/>
</g>
<defs>
<clipPath id="clip0_5596_212569">
<rect width="94" height="58.75" fill="white"/>
</clipPath>
</defs>
</svg>
