<svg width="24" height="24" viewBox="0 0 24 24" fill="none" xmlns="http://www.w3.org/2000/svg">
<path d="M15.7749 16.9889C16.5954 16.2693 17.2643 15.3934 17.7424 14.4124C18.1625 13.4423 18.3683 12.393 18.3458 11.3362C18.3806 10.4936 18.24 9.65294 17.9329 8.8675C17.6259 8.08207 17.1591 7.36895 16.5621 6.77332C15.9651 6.17768 15.2509 5.71251 14.4647 5.40726C13.6786 5.10202 12.8376 4.96334 11.9951 5.00003C11.1486 4.96583 10.3041 5.1074 9.51496 5.4158C8.72584 5.7242 8.00916 6.19274 7.41012 6.7919C6.81772 7.41626 6.35698 8.15341 6.0553 8.95949C5.75363 9.76556 5.6172 10.6241 5.65412 11.484C5.6392 12.5091 5.85163 13.5249 6.27612 14.4581C6.75058 15.4232 7.41324 16.2837 8.22512 16.9889H5.41449V19H10.9556V18.9567H10.9542V16.8411C10.0285 16.3118 9.26571 15.5387 8.74896 14.6059C8.22408 13.6369 7.95808 12.5489 7.97669 11.447C7.91825 10.2617 8.31179 9.09836 9.07782 8.19194C9.44471 7.7866 9.89618 7.46682 10.4003 7.25521C10.9044 7.0436 11.4488 6.94532 11.9951 6.96732C12.5395 6.94727 13.0818 7.04549 13.5846 7.25523C14.0874 7.46497 14.5387 7.78122 14.9075 8.18221C15.6726 9.05013 16.0724 10.1803 16.0232 11.3362C16.0491 12.4648 15.7898 13.5817 15.2694 14.5835C14.7506 15.5267 13.9811 16.3081 13.0458 16.8411V18.9567H13.0444V19H18.5854V16.9889H15.7749Z" fill="black"/>
</svg>
