<svg width="24" height="24" viewBox="0 0 24 24" fill="none" xmlns="http://www.w3.org/2000/svg">
<path d="M8.97489 7.47484C9.27157 7.47484 9.56158 7.56281 9.80825 7.72764C10.0549 7.89246 10.2472 8.12673 10.3607 8.40082C10.4742 8.67491 10.504 8.97651 10.4461 9.26748C10.3882 9.55845 10.2453 9.82572 10.0356 10.0355C9.82578 10.2453 9.5585 10.3881 9.26753 10.446C8.97656 10.5039 8.67496 10.4742 8.40087 10.3607C8.12678 10.2471 7.89251 10.0549 7.72769 9.8082C7.56287 9.56152 7.47489 9.27151 7.47489 8.97484C7.47489 8.57702 7.63293 8.19549 7.91423 7.91418C8.19554 7.63288 8.57707 7.47484 8.97489 7.47484ZM12.7636 4.34771L16.5362 8.12036L16.8718 8.456L19.6422 11.2264C20.0184 11.6034 20.2305 12.1138 20.2322 12.6464C20.2335 12.9077 20.1823 13.1667 20.0818 13.4079C19.9812 13.6492 19.8333 13.8678 19.6468 14.0509L19.6473 14.0514L14.0514 19.6472L14.051 19.6468C13.8679 19.8333 13.6493 19.9812 13.408 20.0817C13.1668 20.1822 12.9078 20.2334 12.6465 20.2322C12.3848 20.233 12.1256 20.1823 11.8836 20.0827C11.6417 19.9832 11.4217 19.8369 11.2365 19.6522L8.45604 16.8718L8.1204 16.5362L4.35776 12.7735C4.17041 12.5876 4.02179 12.3664 3.92051 12.1226C3.81924 11.8789 3.76732 11.6175 3.76776 11.3535V9.36353V5.76771C3.76929 5.23775 3.9805 4.72993 4.35524 4.35519C4.72998 3.98044 5.2378 3.76924 5.76776 3.76771H9.36358H11.3535C11.6152 3.76683 11.8744 3.81761 12.1164 3.91714C12.3583 4.01667 12.5783 4.16299 12.7636 4.34771ZM15.4619 9.86595L15.1262 9.53031L11.3636 5.76771H5.76775V11.3635L9.86599 15.4618L12.6454 18.2412L18.2332 12.6374L18.2322 12.6364L15.4619 9.86595Z" fill="black"/>
</svg>
