<svg width="24" height="24" viewBox="0 0 24 24" fill="none" xmlns="http://www.w3.org/2000/svg">
<path d="M21.0002 3.32344H9.23926V4.73438H21.0002V3.32344Z" fill="black"/>
<path d="M16.2939 5.68125H9.23926V7.09219H16.2939V5.68125Z" fill="black"/>
<path d="M5.41406 4.28906C5.92031 4.28906 6.32812 4.70156 6.32812 5.20312C6.32812 5.70469 5.91563 6.11719 5.41406 6.11719C4.9125 6.11719 4.5 5.70937 4.5 5.20781C4.5 4.70625 4.9125 4.28906 5.41406 4.28906ZM5.41406 2.78906C4.08281 2.78906 3 3.87187 3 5.20781C3 6.54375 4.08281 7.62188 5.41406 7.62188C6.74531 7.62188 7.82812 6.53906 7.82812 5.20781C7.82812 3.87656 6.75 2.78906 5.41406 2.78906Z" fill="black"/>
<path d="M21.0002 10.1156H9.23926V11.5266H21.0002V10.1156Z" fill="black"/>
<path d="M16.2939 12.4734H9.23926V13.8844H16.2939V12.4734Z" fill="black"/>
<path d="M5.41406 11.0859C5.92031 11.0859 6.32812 11.4984 6.32812 12C6.32812 12.5062 5.91563 12.9141 5.41406 12.9141C4.9125 12.9141 4.5 12.5062 4.5 12C4.5 11.4937 4.9125 11.0859 5.41406 11.0859ZM5.41406 9.58594C4.08281 9.58594 3 10.6641 3 12C3 13.3359 4.08281 14.4141 5.41406 14.4141C6.74531 14.4141 7.82812 13.3359 7.82812 12C7.82812 10.6641 6.75 9.58594 5.41406 9.58594Z" fill="black"/>
<path d="M21.0002 16.9078H9.23926V18.3188H21.0002V16.9078Z" fill="black"/>
<path d="M16.2939 19.2656H9.23926V20.6766H16.2939V19.2656Z" fill="black"/>
<path d="M5.41406 17.8781C5.92031 17.8781 6.32812 18.2906 6.32812 18.7922C6.32812 19.2938 5.91563 19.7063 5.41406 19.7063C4.9125 19.7063 4.5 19.2984 4.5 18.7922C4.5 18.2859 4.9125 17.8781 5.41406 17.8781ZM5.41406 16.3781C4.07812 16.3781 3 17.4609 3 18.7922C3 20.1234 4.08281 21.2063 5.41406 21.2063C6.74531 21.2063 7.82812 20.1234 7.82812 18.7922C7.82812 17.4609 6.75 16.3781 5.41406 16.3781Z" fill="black"/>
<path d="M4.70996 6.38679V10.8212H6.11621V6.38679H4.70996Z" fill="black"/>
<path d="M4.71289 13.3591V17.7935H6.11914V13.3591H4.71289Z" fill="black"/>
</svg>
