<svg width="24" height="24" viewBox="0 0 24 24" fill="none" xmlns="http://www.w3.org/2000/svg">
<path d="M11.9996 5.83021L14.4596 8.29021C14.8496 8.68021 15.4796 8.68021 15.8696 8.29021C16.2596 7.90021 16.2596 7.27022 15.8696 6.88021L12.6996 3.70021C12.3096 3.31021 11.6796 3.31021 11.2896 3.70021L8.11965 6.88021C7.72965 7.27022 7.72965 7.90021 8.11965 8.29021C8.50965 8.68021 9.13965 8.68021 9.52965 8.29021L11.9996 5.83021ZM11.9996 18.1702L9.53965 15.7102C9.14965 15.3202 8.51965 15.3202 8.12965 15.7102C7.73965 16.1002 7.73965 16.7302 8.12965 17.1202L11.2996 20.3002C11.6896 20.6902 12.3196 20.6902 12.7096 20.3002L15.8796 17.1302C16.2696 16.7402 16.2696 16.1102 15.8796 15.7202C15.4896 15.3302 14.8596 15.3302 14.4696 15.7202L11.9996 18.1702Z" fill="black"/>
</svg>
