<svg width="20" height="20" viewBox="0 0 20 20" fill="none" xmlns="http://www.w3.org/2000/svg">
<g clip-path="url(#clip0_5465_4202)">
<path d="M5.04574 3.86667L4.72074 3.54167C4.39574 3.21667 3.87074 3.225 3.55407 3.54167L3.54574 3.55C3.22074 3.875 3.22074 4.4 3.54574 4.71667L3.87074 5.04167C4.19574 5.36667 4.7124 5.36667 5.0374 5.04167L5.04574 5.03333C5.37074 4.71667 5.37074 4.18333 5.04574 3.86667ZM2.5124 9.16667H1.6624C1.20407 9.16667 0.837402 9.53333 0.837402 9.99167V10C0.837402 10.4583 1.20407 10.825 1.6624 10.825H2.50407C2.97074 10.8333 3.3374 10.4667 3.3374 10.0083V10C3.3374 9.53333 2.97074 9.16667 2.5124 9.16667ZM10.0124 0.875H10.0041C9.5374 0.875 9.17074 1.24167 9.17074 1.7V2.5C9.17074 2.95833 9.5374 3.325 9.99574 3.325H10.0041C10.4707 3.33333 10.8374 2.96667 10.8374 2.50833V1.7C10.8374 1.24167 10.4707 0.875 10.0124 0.875ZM16.4624 3.55C16.1374 3.225 15.6124 3.225 15.2874 3.54167L14.9624 3.86667C14.6374 4.19167 14.6374 4.71667 14.9624 5.03333L14.9707 5.04167C15.2957 5.36667 15.8207 5.36667 16.1374 5.04167L16.4624 4.71667C16.7874 4.39167 16.7874 3.875 16.4624 3.55ZM14.9541 16.1333L15.2791 16.4583C15.6041 16.7833 16.1291 16.7833 16.4541 16.4583C16.7791 16.1333 16.7791 15.6083 16.4541 15.2833L16.1291 14.9583C15.8041 14.6333 15.2791 14.6417 14.9624 14.9583C14.6291 15.2917 14.6291 15.8083 14.9541 16.1333ZM16.6707 9.99167V10C16.6707 10.4583 17.0374 10.825 17.4957 10.825H18.3374C18.7957 10.825 19.1624 10.4583 19.1624 10V9.99167C19.1624 9.53333 18.7957 9.16667 18.3374 9.16667H17.4957C17.0374 9.16667 16.6707 9.53333 16.6707 9.99167ZM10.0041 5C7.24574 5 5.00407 7.24167 5.00407 10C5.00407 12.7583 7.24574 15 10.0041 15C12.7624 15 15.0041 12.7583 15.0041 10C15.0041 7.24167 12.7624 5 10.0041 5ZM9.99574 19.125H10.0041C10.4624 19.125 10.8291 18.7583 10.8291 18.3V17.5C10.8291 17.0417 10.4624 16.675 10.0041 16.675H9.99574C9.5374 16.675 9.17074 17.0417 9.17074 17.5V18.3C9.17074 18.7583 9.5374 19.125 9.99574 19.125ZM3.54574 16.45C3.87074 16.775 4.39574 16.775 4.72074 16.45L5.04574 16.125C5.37074 15.8 5.3624 15.275 5.04574 14.9583L5.0374 14.95C4.7124 14.625 4.1874 14.625 3.8624 14.95L3.5374 15.275C3.22074 15.6083 3.22074 16.125 3.54574 16.45Z" fill="#C6C6C6"/>
</g>
<defs>
<clipPath id="clip0_5465_4202">
<rect width="20" height="20" fill="white"/>
</clipPath>
</defs>
</svg>
